<svg width="860" height="470" viewBox="0 0 860 470" xmlns="http://www.w3.org/2000/svg">
  <rect width="100%" height="100%" fill="#ffffff"/>
  <style>
    .title { font-family: -apple-system, BlinkMacSystemFont, "Segoe UI", Roboto, sans-serif; font-size: 17px; font-weight: 600; fill: #1a1a1a; }
    .subtitle { font-family: -apple-system, BlinkMacSystemFont, "Segoe UI", Roboto, sans-serif; font-size: 12px; fill: #666666; }
    .axis { stroke: #cccccc; stroke-width: 1; }
    .grid { stroke: #eeeeee; stroke-dasharray: 4,4; }
    .label { font-family: -apple-system, BlinkMacSystemFont, "Segoe UI", Roboto, sans-serif; font-size: 13px; fill: #333333; }
    .val { font-family: -apple-system, BlinkMacSystemFont, "Segoe UI", Roboto, sans-serif; font-size: 10px; font-weight: 600; }
    .legend { font-family: -apple-system, BlinkMacSystemFont, "Segoe UI", Roboto, sans-serif; font-size: 11px; fill: #555555; }
  </style>
  <!-- Title -->
  <text x="430.0" y="30" class="title" text-anchor="middle">P3 Grounding Zero-Point: Multi-Tier Grounded Pass Rate (N=200)</text>
  <text x="430.0" y="48" class="subtitle" text-anchor="middle">R2: z-ai/glm-5.3-flash | R4: openai/gpt-5.6-luna | R6: deepseek/deepseek-v4-pro</text>
  <!-- Y-Axis Grid & Labels -->
  <line x1="70" y1="355.0" x2="810" y2="355.0" class="grid"/>
  <text x="60" y="359.0" class="label" text-anchor="end">0%</text>
  <line x1="70" y1="299.0" x2="810" y2="299.0" class="grid"/>
  <text x="60" y="303.0" class="label" text-anchor="end">20%</text>
  <line x1="70" y1="243.0" x2="810" y2="243.0" class="grid"/>
  <text x="60" y="247.0" class="label" text-anchor="end">40%</text>
  <line x1="70" y1="187.0" x2="810" y2="187.0" class="grid"/>
  <text x="60" y="191.0" class="label" text-anchor="end">60%</text>
  <line x1="70" y1="131.0" x2="810" y2="131.0" class="grid"/>
  <text x="60" y="135.0" class="label" text-anchor="end">80%</text>
  <line x1="70" y1="75.0" x2="810" y2="75.0" class="grid"/>
  <text x="60" y="79.0" class="label" text-anchor="end">100%</text>
  <line x1="70" y1="355" x2="810" y2="355" class="axis"/>
  <!-- T1 R2 Bar -->
  <rect x="140" y="75.0" width="20" height="280.0" fill="#1f77b4" rx="3"/>
  <text x="150.0" y="67.0" class="val" fill="#1f77b4" text-anchor="middle">100.0%</text>
  <line x1="150.0" y1="75.0" x2="150.0" y2="90.18331902956447" stroke="#111111" stroke-width="1.5"/>
  <line x1="147.0" y1="75.0" x2="153.0" y2="75.0" stroke="#111111" stroke-width="1.5"/>
  <line x1="147.0" y1="90.18331902956447" x2="153.0" y2="90.18331902956447" stroke="#111111" stroke-width="1.5"/>
  <!-- T1 R4 Bar -->
  <rect x="165" y="296.4925373134328" width="20" height="58.50746268656716" fill="#e6550d" rx="3"/>
  <text x="175.0" y="288.4925373134328" class="val" fill="#e6550d" text-anchor="middle">20.9%</text>
  <line x1="175.0" y1="265.19894178072906" x2="175.0" y2="318.9480814707185" stroke="#111111" stroke-width="1.5"/>
  <line x1="172.0" y1="265.19894178072906" x2="178.0" y2="265.19894178072906" stroke="#111111" stroke-width="1.5"/>
  <line x1="172.0" y1="318.9480814707185" x2="178.0" y2="318.9480814707185" stroke="#111111" stroke-width="1.5"/>
  <!-- T1 R6 Bar -->
  <rect x="190" y="150.22388059701493" width="20" height="204.77611940298507" fill="#9467bd" rx="3"/>
  <text x="200.0" y="142.22388059701493" class="val" fill="#9467bd" text-anchor="middle">73.1%</text>
  <line x1="200.0" y1="124.62217375491372" x2="200.0" y2="182.85070519906384" stroke="#111111" stroke-width="1.5"/>
  <line x1="197.0" y1="124.62217375491372" x2="203.0" y2="124.62217375491372" stroke="#111111" stroke-width="1.5"/>
  <line x1="197.0" y1="182.85070519906384" x2="203.0" y2="182.85070519906384" stroke="#111111" stroke-width="1.5"/>
  <!-- T1 Sim Reference -->
  <rect x="215" y="75.0" width="18" height="280.0" fill="#bbbbbb" opacity="0.6" rx="2"/>
  <text x="224.0" y="69.0" class="legend" text-anchor="middle">100%</text>
  <text x="190" y="380" class="label" font-weight="600" text-anchor="middle">T1 (1-hop)</text>
  <text x="190" y="397" class="legend" text-anchor="middle">n=67</text>
  <!-- T2 R2 Bar -->
  <rect x="385" y="183.65671641791045" width="20" height="171.34328358208955" fill="#1f77b4" rx="3"/>
  <text x="395.0" y="175.65671641791045" class="val" fill="#1f77b4" text-anchor="middle">61.2%</text>
  <line x1="395.0" y1="153.53733444679082" x2="395.0" y2="217.1753489180371" stroke="#111111" stroke-width="1.5"/>
  <line x1="392.0" y1="153.53733444679082" x2="398.0" y2="153.53733444679082" stroke="#111111" stroke-width="1.5"/>
  <line x1="392.0" y1="217.1753489180371" x2="398.0" y2="217.1753489180371" stroke="#111111" stroke-width="1.5"/>
  <!-- T2 R4 Bar -->
  <rect x="410" y="342.46268656716416" width="20" height="12.53731343283582" fill="#e6550d" rx="3"/>
  <text x="420.0" y="334.46268656716416" class="val" fill="#e6550d" text-anchor="middle">4.5%</text>
  <line x1="420.0" y1="320.3980673505375" x2="420.0" y2="350.70368696582915" stroke="#111111" stroke-width="1.5"/>
  <line x1="417.0" y1="320.3980673505375" x2="423.0" y2="320.3980673505375" stroke="#111111" stroke-width="1.5"/>
  <line x1="417.0" y1="350.70368696582915" x2="423.0" y2="350.70368696582915" stroke="#111111" stroke-width="1.5"/>
  <!-- T2 R6 Bar -->
  <rect x="435" y="279.77611940298505" width="20" height="75.22388059701493" fill="#9467bd" rx="3"/>
  <text x="445.0" y="271.77611940298505" class="val" fill="#9467bd" text-anchor="middle">26.9%</text>
  <line x1="445.0" y1="247.14929480093613" x2="445.0" y2="305.3778262450862" stroke="#111111" stroke-width="1.5"/>
  <line x1="442.0" y1="247.14929480093613" x2="448.0" y2="247.14929480093613" stroke="#111111" stroke-width="1.5"/>
  <line x1="442.0" y1="305.3778262450862" x2="448.0" y2="305.3778262450862" stroke="#111111" stroke-width="1.5"/>
  <!-- T2 Sim Reference -->
  <rect x="460" y="170.76" width="18" height="184.24" fill="#bbbbbb" opacity="0.6" rx="2"/>
  <text x="469.0" y="164.76" class="legend" text-anchor="middle">66%</text>
  <text x="435" y="380" class="label" font-weight="600" text-anchor="middle">T2 (3-hop)</text>
  <text x="435" y="397" class="legend" text-anchor="middle">n=67</text>
  <!-- T3 R2 Bar -->
  <rect x="630" y="333.7878787878788" width="20" height="21.21212121212121" fill="#1f77b4" rx="3"/>
  <text x="640.0" y="325.7878787878788" class="val" fill="#1f77b4" text-anchor="middle">7.6%</text>
  <line x1="640.0" y1="308.69025394229055" x2="640.0" y2="345.8182294823711" stroke="#111111" stroke-width="1.5"/>
  <line x1="637.0" y1="308.69025394229055" x2="643.0" y2="308.69025394229055" stroke="#111111" stroke-width="1.5"/>
  <line x1="637.0" y1="345.8182294823711" x2="643.0" y2="345.8182294823711" stroke="#111111" stroke-width="1.5"/>
  <!-- T3 R4 Bar -->
  <rect x="655" y="355.0" width="20" height="0.0" fill="#e6550d" rx="3"/>
  <text x="665.0" y="347.0" class="val" fill="#e6550d" text-anchor="middle">0.0%</text>
  <line x1="665.0" y1="339.5992840362084" x2="665.0" y2="355.0" stroke="#111111" stroke-width="1.5"/>
  <line x1="662.0" y1="339.5992840362084" x2="668.0" y2="339.5992840362084" stroke="#111111" stroke-width="1.5"/>
  <line x1="662.0" y1="355.0" x2="668.0" y2="355.0" stroke="#111111" stroke-width="1.5"/>
  <!-- T3 R6 Bar -->
  <rect x="680" y="350.75757575757575" width="20" height="4.242424242424242" fill="#9467bd" rx="3"/>
  <text x="690.0" y="342.75757575757575" class="val" fill="#9467bd" text-anchor="middle">1.5%</text>
  <line x1="690.0" y1="332.3314232662141" x2="690.0" y2="354.249700647685" stroke="#111111" stroke-width="1.5"/>
  <line x1="687.0" y1="332.3314232662141" x2="693.0" y2="332.3314232662141" stroke="#111111" stroke-width="1.5"/>
  <line x1="687.0" y1="354.249700647685" x2="693.0" y2="354.249700647685" stroke="#111111" stroke-width="1.5"/>
  <!-- T3 Sim Reference -->
  <rect x="705" y="355.0" width="18" height="0.0" fill="#bbbbbb" opacity="0.6" rx="2"/>
  <text x="714.0" y="349.0" class="legend" text-anchor="middle">0%</text>
  <text x="680" y="380" class="label" font-weight="600" text-anchor="middle">T3 (5-hop)</text>
  <text x="680" y="397" class="legend" text-anchor="middle">n=66</text>
  <!-- Legend -->
  <rect x="70" y="418" width="14" height="12" fill="#1f77b4" rx="2"/>
  <text x="90" y="428" class="legend">R2 Workhorse (glm-5.3-flash)</text>
  <rect x="275" y="418" width="14" height="12" fill="#e6550d" rx="2"/>
  <text x="295" y="428" class="legend">R4 Frontier (gpt-5.6-luna)</text>
  <rect x="460" y="418" width="14" height="12" fill="#9467bd" rx="2"/>
  <text x="480" y="428" class="legend">R6 Reasoning (deepseek-v4-pro)</text>
  <rect x="665" y="418" width="14" height="12" fill="#bbbbbb" opacity="0.6" rx="2"/>
  <text x="685" y="428" class="legend">Day 3 Simulator Baseline</text>
</svg>