<svg xmlns="http://www.w3.org/2000/svg" width="720" height="460" font-family="sans-serif" font-size="12">
<rect width="720" height="460" fill="white"/>
<text x="70" y="26" font-size="15" font-weight="bold">Q1: end-to-end reliability vs required tool hops</text>
<line x1="70" y1="405.0" x2="690" y2="405.0" stroke="#eee"/>
<text x="62" y="409.0" text-anchor="end" fill="#666">0.0</text>
<line x1="70" y1="334.0" x2="690" y2="334.0" stroke="#eee"/>
<text x="62" y="338.0" text-anchor="end" fill="#666">0.2</text>
<line x1="70" y1="263.0" x2="690" y2="263.0" stroke="#eee"/>
<text x="62" y="267.0" text-anchor="end" fill="#666">0.4</text>
<line x1="70" y1="192.0" x2="690" y2="192.0" stroke="#eee"/>
<text x="62" y="196.0" text-anchor="end" fill="#666">0.6</text>
<line x1="70" y1="121.0" x2="690" y2="121.0" stroke="#eee"/>
<text x="62" y="125.0" text-anchor="end" fill="#666">0.8</text>
<line x1="70" y1="50.0" x2="690" y2="50.0" stroke="#eee"/>
<text x="62" y="54.0" text-anchor="end" fill="#666">1.0</text>
<text x="70.0" y="423.0" text-anchor="middle" fill="#666">1</text>
<text x="158.6" y="423.0" text-anchor="middle" fill="#666">2</text>
<text x="247.1" y="423.0" text-anchor="middle" fill="#666">3</text>
<text x="335.7" y="423.0" text-anchor="middle" fill="#666">4</text>
<text x="424.3" y="423.0" text-anchor="middle" fill="#666">5</text>
<text x="512.9" y="423.0" text-anchor="middle" fill="#666">6</text>
<text x="601.4" y="423.0" text-anchor="middle" fill="#666">7</text>
<text x="690.0" y="423.0" text-anchor="middle" fill="#666">8</text>
<text x="380" y="448" text-anchor="middle" fill="#333">required tool hops (n)</text>
<polygon points="70.0,58.3 158.6,66.4 247.1,74.3 335.7,82.0 424.3,89.5 512.9,96.9 601.4,104.1 690.0,111.1 690.0,134.9 601.4,125.5 512.9,115.8 424.3,105.7 335.7,95.3 247.1,84.6 158.6,73.4 70.0,61.9" fill="#c62828" fill-opacity="0.12"/>
<polygon points="70.0,57.6 158.6,70.4 247.1,103.5 335.7,127.3 424.3,168.1 512.9,208.5 601.4,251.8 690.0,288.1 690.0,316.2 601.4,282.1 512.9,239.5 424.3,198.1 335.7,154.3 247.1,127.5 158.6,87.2 70.0,69.1" fill="#1565c0" fill-opacity="0.15"/>
<polyline points="70.0,59.9 158.6,69.6 247.1,79.0 335.7,88.1 424.3,97.0 512.9,105.6 601.4,114.0 690.0,122.1" fill="none" stroke="#c62828" stroke-width="2" stroke-dasharray="6 4"/>
<polyline points="70.0,62.1 158.6,77.7 247.1,114.6 335.7,140.2 424.3,182.8 512.9,223.9 601.4,267.3 690.0,302.8" fill="none" stroke="#1565c0" stroke-width="2.5"/>
<circle cx="70.0" cy="62.1" r="3" fill="#1565c0"/>
<circle cx="158.6" cy="77.7" r="3" fill="#1565c0"/>
<circle cx="247.1" cy="114.6" r="3" fill="#1565c0"/>
<circle cx="335.7" cy="140.2" r="3" fill="#1565c0"/>
<circle cx="424.3" cy="182.8" r="3" fill="#1565c0"/>
<circle cx="512.9" cy="223.9" r="3" fill="#1565c0"/>
<circle cx="601.4" cy="267.3" r="3" fill="#1565c0"/>
<circle cx="690.0" cy="302.8" r="3" fill="#1565c0"/>
<line x1="247.1" y1="50" x2="247.1" y2="405" stroke="#999" stroke-dasharray="3 3"/>
<text x="252.1" y="64" fill="#555" font-size="11">naive falsified at n=3</text>
<rect x="480" y="56" width="200" height="46" fill="white" stroke="#ddd"/>
<line x1="490" y1="72" x2="514" y2="72" stroke="#1565c0" stroke-width="2.5"/>
<text x="520" y="76">measured (95% CI)</text>
<line x1="490" y1="90" x2="514" y2="90" stroke="#c62828" stroke-width="2" stroke-dasharray="6 4"/>
<text x="520" y="94">naive p1^n</text>
</svg>
