<svg xmlns="http://www.w3.org/2000/svg" width="760" height="440" viewBox="0 0 760 440" font-family="ui-sans-serif,Segoe UI,Helvetica,Arial">
<rect width="760" height="440" fill="#ffffff"/>
<text x="380" y="30" text-anchor="middle" font-size="18" font-weight="700" fill="#111827">FAULTLINE baseline — success vs. hops (deterministic agent, step cap 12)</text>
<line x1="70" y1="380.0" x2="730" y2="380.0" stroke="#e5e7eb" stroke-width="1"/>
<text x="60" y="384.0" text-anchor="end" font-size="12" fill="#6b7280">0.00</text>
<line x1="70" y1="300.0" x2="730" y2="300.0" stroke="#e5e7eb" stroke-width="1"/>
<text x="60" y="304.0" text-anchor="end" font-size="12" fill="#6b7280">0.25</text>
<line x1="70" y1="220.0" x2="730" y2="220.0" stroke="#e5e7eb" stroke-width="1"/>
<text x="60" y="224.0" text-anchor="end" font-size="12" fill="#6b7280">0.50</text>
<line x1="70" y1="140.0" x2="730" y2="140.0" stroke="#e5e7eb" stroke-width="1"/>
<text x="60" y="144.0" text-anchor="end" font-size="12" fill="#6b7280">0.75</text>
<line x1="70" y1="60.0" x2="730" y2="60.0" stroke="#e5e7eb" stroke-width="1"/>
<text x="60" y="64.0" text-anchor="end" font-size="12" fill="#6b7280">1.00</text>
<line x1="70" y1="60" x2="70" y2="380" stroke="#9ca3af"/>
<line x1="70" y1="380" x2="730" y2="380" stroke="#9ca3af"/>
<text x="20" y="220" transform="rotate(-90 20 220)" text-anchor="middle" font-size="13" fill="#374151">success rate</text>
<text x="380" y="422" text-anchor="middle" font-size="13" fill="#374151">hops (entities to retrieve and sum)</text>
<rect x="541.4" y="60" width="188.6" height="320" fill="#fca5a5" opacity="0.12"/>
<line x1="541.4" y1="60" x2="541.4" y2="380" stroke="#dc2626" stroke-width="1.5" stroke-dasharray="5 4"/>
<text x="547.4" y="76.0" font-size="12" fill="#b91c1c">over budget (needs &gt; 12 steps)</text>
<text x="70.0" y="398.0" text-anchor="middle" font-size="12" fill="#6b7280">1</text>
<text x="164.3" y="398.0" text-anchor="middle" font-size="12" fill="#6b7280">2</text>
<text x="258.6" y="398.0" text-anchor="middle" font-size="12" fill="#6b7280">3</text>
<text x="352.9" y="398.0" text-anchor="middle" font-size="12" fill="#6b7280">4</text>
<text x="447.1" y="398.0" text-anchor="middle" font-size="12" fill="#6b7280">5</text>
<text x="541.4" y="398.0" text-anchor="middle" font-size="12" fill="#6b7280">6</text>
<text x="635.7" y="398.0" text-anchor="middle" font-size="12" fill="#6b7280">7</text>
<text x="730.0" y="398.0" text-anchor="middle" font-size="12" fill="#6b7280">8</text>
<polyline points="70.0,60.0 164.3,60.0 258.6,60.0 352.9,60.0 447.1,60.0 541.4,380.0 635.7,380.0 730.0,380.0" fill="none" stroke="#2563eb" stroke-width="2"/>
<line x1="70.0" y1="60.0" x2="70.0" y2="66.8" stroke="#1e3a8a" stroke-width="1.5"/>
<line x1="66.0" y1="66.8" x2="74.0" y2="66.8" stroke="#1e3a8a" stroke-width="1.5"/>
<line x1="66.0" y1="60.0" x2="74.0" y2="60.0" stroke="#1e3a8a" stroke-width="1.5"/>
<circle cx="70.0" cy="60.0" r="4" fill="#2563eb"/>
<line x1="164.3" y1="60.0" x2="164.3" y2="67.8" stroke="#1e3a8a" stroke-width="1.5"/>
<line x1="160.3" y1="67.8" x2="168.3" y2="67.8" stroke="#1e3a8a" stroke-width="1.5"/>
<line x1="160.3" y1="60.0" x2="168.3" y2="60.0" stroke="#1e3a8a" stroke-width="1.5"/>
<circle cx="164.3" cy="60.0" r="4" fill="#2563eb"/>
<line x1="258.6" y1="60.0" x2="258.6" y2="67.1" stroke="#1e3a8a" stroke-width="1.5"/>
<line x1="254.6" y1="67.1" x2="262.6" y2="67.1" stroke="#1e3a8a" stroke-width="1.5"/>
<line x1="254.6" y1="60.0" x2="262.6" y2="60.0" stroke="#1e3a8a" stroke-width="1.5"/>
<circle cx="258.6" cy="60.0" r="4" fill="#2563eb"/>
<line x1="352.9" y1="60.0" x2="352.9" y2="67.2" stroke="#1e3a8a" stroke-width="1.5"/>
<line x1="348.9" y1="67.2" x2="356.9" y2="67.2" stroke="#1e3a8a" stroke-width="1.5"/>
<line x1="348.9" y1="60.0" x2="356.9" y2="60.0" stroke="#1e3a8a" stroke-width="1.5"/>
<circle cx="352.9" cy="60.0" r="4" fill="#2563eb"/>
<line x1="447.1" y1="60.0" x2="447.1" y2="67.4" stroke="#1e3a8a" stroke-width="1.5"/>
<line x1="443.1" y1="67.4" x2="451.1" y2="67.4" stroke="#1e3a8a" stroke-width="1.5"/>
<line x1="443.1" y1="60.0" x2="451.1" y2="60.0" stroke="#1e3a8a" stroke-width="1.5"/>
<circle cx="447.1" cy="60.0" r="4" fill="#2563eb"/>
<line x1="541.4" y1="376.4" x2="541.4" y2="380.0" stroke="#1e3a8a" stroke-width="1.5"/>
<line x1="537.4" y1="380.0" x2="545.4" y2="380.0" stroke="#1e3a8a" stroke-width="1.5"/>
<line x1="537.4" y1="376.4" x2="545.4" y2="376.4" stroke="#1e3a8a" stroke-width="1.5"/>
<circle cx="541.4" cy="380.0" r="4" fill="#2563eb"/>
<line x1="635.7" y1="373.7" x2="635.7" y2="380.0" stroke="#1e3a8a" stroke-width="1.5"/>
<line x1="631.7" y1="380.0" x2="639.7" y2="380.0" stroke="#1e3a8a" stroke-width="1.5"/>
<line x1="631.7" y1="373.7" x2="639.7" y2="373.7" stroke="#1e3a8a" stroke-width="1.5"/>
<circle cx="635.7" cy="380.0" r="4" fill="#2563eb"/>
<line x1="730.0" y1="371.4" x2="730.0" y2="380.0" stroke="#1e3a8a" stroke-width="1.5"/>
<line x1="726.0" y1="380.0" x2="734.0" y2="380.0" stroke="#1e3a8a" stroke-width="1.5"/>
<line x1="726.0" y1="371.4" x2="734.0" y2="371.4" stroke="#1e3a8a" stroke-width="1.5"/>
<circle cx="730.0" cy="380.0" r="4" fill="#2563eb"/>
<text x="730" y="434" text-anchor="end" font-size="11" fill="#9ca3af">error bars: Wilson 95% CI, n per hop shown in baseline.json</text>
</svg>
